<?xml version="1.0" encoding="UTF-8"?>
<svg id="Layer_1" data-name="Layer 1" xmlns="http://www.w3.org/2000/svg" viewBox="0 0 1500 1500">
  <defs>
    <style>
      .cls-1 {
        fill: #fff;
      }
    </style>
  </defs>
  <circle class="cls-1" cx="750" cy="750" r="691.87"/>
  <path d="M750,33.13C354.08,33.13,33.12,354.08,33.12,750s320.96,716.87,716.88,716.87,716.87-320.95,716.87-716.87S1145.92,33.13,750,33.13ZM429.44,427.29h640.64c8.83,0,17.33,1.26,25.47,3.43-1.11,1.02-2.29,1.92-3.31,3.07l-286.33,324.88c-14.41,16.35-34.35,25.36-56.15,25.36s-41.75-9.01-56.17-25.36L404.46,430.59c8-2.08,16.34-3.3,24.99-3.3Zm739.84,471.36c0,96.12-77.92,174.04-174.05,174.04H504.78c-96.13,0-174.05-77.92-174.05-174.04v-372.4c0-13.83,2.85-26.98,7.98-38.93l289.86,328.88c30.72,34.85,74.98,54.84,121.46,54.84,46.46,0,90.71-19.99,121.43-54.84l286.33-324.87c1.26-1.44,2.23-3.01,3.27-4.56,5.27,12.1,8.24,25.43,8.24,39.47v372.4Z"/>
</svg>