<?xml version="1.0" encoding="UTF-8"?>
<svg id="Layer_1" data-name="Layer 1" xmlns="http://www.w3.org/2000/svg" xmlns:xlink="http://www.w3.org/1999/xlink" viewBox="0 0 1500 1500">
  <defs>
    <style>
      .cls-1 {
        fill: #fff;
      }

      .cls-2 {
        fill: url(#linear-gradient);
      }
    </style>
    <linearGradient id="linear-gradient" x1="1269.95" y1="1269.94" x2="230.06" y2="230.06" gradientUnits="userSpaceOnUse">
      <stop offset="0" stop-color="#1677f1"/>
      <stop offset=".18" stop-color="#176ee9"/>
      <stop offset=".46" stop-color="#1d55d3"/>
      <stop offset=".82" stop-color="#252eb0"/>
      <stop offset="1" stop-color="#2b189c"/>
    </linearGradient>
  </defs>
  <circle class="cls-1" cx="750" cy="750" r="680.99"/>
  <path class="cls-2" d="M750,14.69C343.9,14.69,14.69,343.9,14.69,750s329.21,735.31,735.31,735.31,735.31-329.21,735.31-735.31S1156.1,14.69,750,14.69Zm289.43,371.25h-86.13c-84.85,0-111.3,52.65-111.3,106.67v128.13h189.43l-30.28,197.44h-159.15v477.29h-213.46v-477.29h-173.42v-197.44h173.42v-150.48c0-171.18,101.98-265.74,257.99-265.74,74.73,0,152.9,13.35,152.9,13.35v168.08Z"/>
</svg>