<?xml version="1.0" encoding="UTF-8"?>
<svg id="Layer_1" data-name="Layer 1" xmlns="http://www.w3.org/2000/svg" xmlns:xlink="http://www.w3.org/1999/xlink" viewBox="0 0 1500 1500">
  <defs>
    <style>
      .cls-1 {
        fill: #fff;
      }

      .cls-2 {
        fill: url(#Degradado_sin_nombre_6);
      }
    </style>
    <linearGradient id="Degradado_sin_nombre_6" data-name="Degradado sin nombre 6" x1="230.94" y1="230.94" x2="1269.06" y2="1269.06" gradientUnits="userSpaceOnUse">
      <stop offset="0" stop-color="#ffe185"/>
      <stop offset=".21" stop-color="#ffbb36"/>
      <stop offset=".38" stop-color="#ff5176"/>
      <stop offset=".52" stop-color="#f63395"/>
      <stop offset=".74" stop-color="#a436d2"/>
      <stop offset="1" stop-color="#5f4eed"/>
    </linearGradient>
  </defs>
  <circle class="cls-1" cx="741.26" cy="750" r="679.83"/>
  <path class="cls-2" d="M750,15.94C344.59,15.94,15.94,344.59,15.94,750s328.65,734.06,734.06,734.06,734.06-328.65,734.06-734.06S1155.42,15.94,750,15.94Zm444.95,911.7c0,147.39-119.92,267.29-267.31,267.29h-355.28c-147.39,0-267.3-119.91-267.3-267.29v-355.3c0-147.39,119.91-267.29,267.3-267.29h355.28c147.39,0,267.31,119.9,267.31,267.29v355.3Zm-300.92-177.65c0,77.41-62.97,140.38-140.37,140.38s-140.39-62.97-140.39-140.38,62.98-140.38,140.39-140.38,140.37,62.97,140.37,140.38Zm33.61-361.22h-355.28c-101.23,0-183.57,82.34-183.57,183.57v355.3c0,101.23,82.34,183.58,183.57,183.58h355.28c101.23,0,183.59-82.35,183.59-183.58v-355.3c0-101.23-82.36-183.57-183.59-183.57Zm-173.98,580.37c-120.84,0-219.15-98.32-219.15-219.15s98.31-219.15,219.15-219.15,219.15,98.31,219.15,219.15-98.31,219.15-219.15,219.15Zm231.93-400.86c-28.81,0-52.16-23.36-52.16-52.17s23.35-52.17,52.16-52.17,52.17,23.36,52.17,52.17-23.36,52.17-52.17,52.17Z"/>
</svg>