<?xml version="1.0" encoding="UTF-8"?>
<svg id="Layer_1" data-name="Layer 1" xmlns="http://www.w3.org/2000/svg" xmlns:xlink="http://www.w3.org/1999/xlink" viewBox="0 0 1500 1500">
  <defs>
    <style>
      .cls-1 {
        fill: #fff;
      }

      .cls-2 {
        fill: url(#linear-gradient);
      }
    </style>
    <linearGradient id="linear-gradient" x1="42" y1="750" x2="1458" y2="750" gradientUnits="userSpaceOnUse">
      <stop offset="0" stop-color="#23004a"/>
      <stop offset=".96" stop-color="#010003"/>
      <stop offset="1" stop-color="#000"/>
    </linearGradient>
  </defs>
  <circle class="cls-1" cx="750" cy="750" r="691.87"/>
  <g>
    <path class="cls-2" d="M749.92,42c-391.02,.04-707.96,317.06-707.92,708.07v.09c.05,390.97,317.03,707.88,708,707.83h.08c391.02-.04,707.96-317.06,707.92-708.08-.05-391.02-317.07-707.96-708.08-707.91Z"/>
    <path class="cls-1" d="M933.93,715.49c3.73,1.52,7.13,3.22,10.69,4.75,49.52,23.91,85.82,59.7,104.81,104.14,26.63,61.91,29.17,162.48-51.39,242.87-61.4,61.39-136.19,89.04-241.85,89.89h-.51c-119.06-.85-210.48-40.87-272.04-119.06-54.78-69.54-82.94-166.38-83.95-287.64v-.85c.85-121.27,29-218.11,83.78-287.65,61.57-78.19,153.15-118.21,272.21-119.06h.51c119.23,.85,211.83,40.7,275.26,118.55,31.21,38.5,54.27,84.8,68.86,138.56l-68.52,18.31c-12.04-43.76-30.19-81.07-54.61-110.92-49.53-60.72-123.81-91.92-221.33-92.6-96.68,.85-169.78,31.88-217.43,92.26-44.44,56.48-67.5,138.23-68.35,242.87,.85,104.64,23.91,186.39,68.35,243.04,47.49,60.38,120.76,91.42,217.43,92.26,87.17-.68,144.84-21.37,192.84-69.37,54.78-54.61,53.76-121.77,36.3-162.64-10.35-24.08-29-44.1-54.11-59.19-6.27,45.63-20.01,81.92-41.89,109.91-29,36.97-70.22,56.99-123.3,59.87-40.03,2.21-78.53-7.46-108.38-27.14-35.28-23.4-55.97-59.02-58.17-100.57-4.24-81.92,60.55-140.77,161.46-146.53,35.79-2.03,69.37-.51,100.4,4.75-4.07-25.1-12.38-45.12-24.76-59.7-16.96-19.84-43.42-30.02-78.36-30.19h-1.19c-28.15,0-66.15,7.8-90.4,44.61l-58.34-40.03c32.56-49.35,85.31-76.49,148.91-76.49h1.36c106.17,.68,169.43,66.99,175.88,182.66l-.34,.34h.17Zm-264.58,116.68c2.2,42.57,48.16,62.41,92.6,59.87,43.42-2.38,92.6-19.33,100.91-124.15-22.39-4.92-47.15-7.46-73.6-7.46-8.14,0-16.28,.17-24.42,.68-72.76,4.07-97.01,39.35-95.32,70.89l-.17,.17h0Z"/>
  </g>
</svg>