<?xml version="1.0" encoding="UTF-8"?>
<svg id="Layer_1" data-name="Layer 1" xmlns="http://www.w3.org/2000/svg" xmlns:xlink="http://www.w3.org/1999/xlink" viewBox="0 0 1500 1500">
  <defs>
    <style>
      .cls-1 {
        fill: #fff;
      }

      .cls-2 {
        fill: url(#Degradado_sin_nombre_5);
      }
    </style>
    <linearGradient id="Degradado_sin_nombre_5" data-name="Degradado sin nombre 5" x1="1265.5" y1="1265.5" x2="234.5" y2="234.5" gradientUnits="userSpaceOnUse">
      <stop offset="0" stop-color="#ff4c3c"/>
      <stop offset=".96" stop-color="#ee053d"/>
      <stop offset="1" stop-color="#ee023e"/>
    </linearGradient>
  </defs>
  <circle class="cls-1" cx="750" cy="750" r="675.17"/>
  <path class="cls-2" d="M750,20.97C347.37,20.97,20.97,347.37,20.97,750s326.4,729.03,729.03,729.03,729.04-326.4,729.04-729.03S1152.63,20.97,750,20.97Zm277.71,834.21c-93.58,116.07-245.29,123.76-315.29,52.52-5.4-5.45-9.72-11.85-14.99-18.38-.77,2.63-1.49,4.84-2.07,7.06-33.6,131.65-37.32,160.89-71.86,222.02-16.47,29.05-35.01,56.59-55.53,82.94-2.32,2.98-4.48,6.83-9.12,5.88-5.07-1.08-5.46-5.63-6.01-9.69-5.53-39.99-8.58-80.12-7.25-120.5,1.75-52.61,8.26-70.67,76.07-355.86,.99-4.35-.12-7.96-1.58-11.88-16.23-43.8-19.43-88.24-5.26-133.28,30.7-97.27,140.98-104.73,160.27-24.46,11.87,49.64-19.55,114.6-43.68,210.62-19.98,79.23,73.28,135.55,153,77.71,73.51-53.31,102.04-181.14,96.61-271.73-10.68-180.63-208.74-219.66-334.41-161.5-144.06,66.61-176.8,245.17-111.76,326.78,8.25,10.39,14.6,16.72,11.88,27.25-4.2,16.34-7.88,32.8-12.4,49.06-3.36,12.09-13.48,16.49-25.71,11.52-23.98-9.69-43.95-24.98-60.15-45.07-55.25-68.4-71.05-203.69,1.99-318.23,80.91-126.9,231.41-178.22,368.82-162.65,164.11,18.67,267.86,130.8,287.29,258.02,8.85,57.95,2.47,200.86-78.87,301.85Z"/>
</svg>