<?xml version="1.0" encoding="UTF-8"?>
<svg id="Layer_1" data-name="Layer 1" xmlns="http://www.w3.org/2000/svg" viewBox="0 0 1500 1500">
  <defs>
    <style>
      .cls-1 {
        fill: #fff;
      }

      .cls-2 {
        fill: #2cb5e5;
      }
    </style>
  </defs>
  <path class="cls-2" d="M750,1484.19c405.48,0,734.19-328.71,734.19-734.19S1155.47,15.81,750,15.81,15.81,344.52,15.81,750s328.7,734.19,734.18,734.19Z"/>
  <path class="cls-1" d="M321.37,743.64s367.09-150.65,494.41-203.71c48.8-21.22,214.31-89.12,214.31-89.12,0,0,76.39-29.7,70.02,42.44-2.12,29.71-19.1,133.68-36.07,246.14-25.47,159.14-53.05,333.14-53.05,333.14,0,0-4.24,48.81-40.32,57.29-36.07,8.49-95.49-29.7-106.09-38.19-8.49-6.36-159.14-101.85-214.31-148.53-14.85-12.73-31.83-38.19,2.12-67.9,76.39-70.02,167.63-157.02,222.8-212.19,25.47-25.46,50.93-84.87-55.17-12.73-150.65,103.98-299.19,201.59-299.19,201.59,0,0-33.95,21.22-97.61,2.12-63.66-19.09-137.93-44.56-137.93-44.56,0,0-50.92-31.83,36.07-65.78h0Z"/>
</svg>