<?xml version="1.0" encoding="UTF-8"?>
<svg id="Layer_1" data-name="Layer 1" xmlns="http://www.w3.org/2000/svg" xmlns:xlink="http://www.w3.org/1999/xlink" viewBox="0 0 1500 1500">
  <defs>
    <style>
      .cls-1, .cls-2 {
        fill: #fff;
      }

      .cls-3 {
        fill: #00c9d0;
      }

      .cls-3, .cls-2, .cls-4 {
        fill-rule: evenodd;
      }

      .cls-4 {
        fill: #ff1753;
        opacity: .8;
      }

      .cls-5 {
        fill: url(#linear-gradient);
      }
    </style>
    <linearGradient id="linear-gradient" x1="18" y1="750" x2="1482" y2="750" gradientUnits="userSpaceOnUse">
      <stop offset="0" stop-color="#23004a"/>
      <stop offset=".96" stop-color="#010003"/>
      <stop offset="1" stop-color="#000"/>
    </linearGradient>
  </defs>
  <circle class="cls-1" cx="750" cy="750" r="677.92"/>
  <g>
    <circle class="cls-5" cx="750" cy="750" r="732"/>
    <path class="cls-4" d="M992.43,604.79c65.36,46.69,145.44,74.18,231.92,74.18v-166.34c-16.37,0-32.69-1.7-48.7-5.09v130.93c-86.47,0-166.54-27.48-231.92-74.18v339.44c0,169.81-137.72,307.45-307.6,307.45-63.39,0-122.31-19.16-171.25-52.01,55.86,57.09,133.76,92.51,219.94,92.51,169.9,0,307.63-137.65,307.63-307.46v-339.44h0Zm60.09-167.81c-33.41-36.48-55.34-83.62-60.09-135.74v-21.39h-46.15c11.61,66.23,51.24,122.82,106.24,157.13h0Zm-480.2,591.9c-18.65-24.46-28.75-54.38-28.7-85.15,0-77.67,63-140.63,140.72-140.63,14.48,0,28.88,2.21,42.69,6.58v-170.05c-16.13-2.2-32.42-3.14-48.68-2.79v132.36c-13.82-4.37-28.22-6.6-42.71-6.59-77.72,0-140.71,62.97-140.71,140.64,0,54.91,31.48,102.47,77.4,125.63Z"/>
    <path class="cls-2" d="M943.73,564.28c65.38,46.7,145.44,74.18,231.92,74.18v-130.93c-48.27-10.28-91-35.49-123.13-70.56-55-34.31-94.63-90.9-106.24-157.13h-121.23V944.22c-.27,77.45-63.17,140.16-140.72,140.16-45.7,0-86.29-21.77-112.01-55.49-45.92-23.16-77.4-70.72-77.4-125.63,0-77.67,62.99-140.64,140.71-140.64,14.88,0,29.24,2.32,42.7,6.59v-132.36c-166.9,3.45-301.14,139.75-301.14,307.38,0,83.67,33.43,159.53,87.68,214.96,48.94,32.85,107.86,52.01,171.25,52.01,169.88,0,307.6-137.65,307.6-307.45v-339.45Z"/>
    <path class="cls-3" d="M1175.64,507.53v-35.41c-43.53,.07-86.2-12.12-123.13-35.16,32.69,35.77,75.73,60.44,123.13,70.57Zm-229.37-227.68c-1.11-6.33-1.96-12.7-2.55-19.1v-21.39h-167.39V903.73c-.26,77.44-63.15,140.15-140.71,140.15-22.77,0-44.27-5.4-63.31-15,25.72,33.72,66.32,55.49,112.01,55.49,77.54,0,140.45-62.71,140.72-140.16V279.85h121.23Zm-267.94,356.99v-37.69c-14-1.91-28.09-2.87-42.21-2.86-169.9,0-307.63,137.65-307.63,307.44,0,106.45,54.12,200.27,136.38,255.45-54.24-55.42-87.67-131.28-87.67-214.96,0-167.63,134.22-303.93,301.13-307.37h0Z"/>
  </g>
</svg>