<?xml version="1.0" encoding="UTF-8"?>
<svg id="Layer_1" data-name="Layer 1" xmlns="http://www.w3.org/2000/svg" xmlns:xlink="http://www.w3.org/1999/xlink" viewBox="0 0 1500 1500">
  <defs>
    <style>
      .cls-1 {
        fill: #fff;
      }

      .cls-2 {
        fill: url(#Degradado_sin_nombre_8);
      }
    </style>
    <linearGradient id="Degradado_sin_nombre_8" data-name="Degradado sin nombre 8" x1="1259.47" y1="1259.47" x2="240.53" y2="240.53" gradientUnits="userSpaceOnUse">
      <stop offset="0" stop-color="#00fb73"/>
      <stop offset="1" stop-color="#00b25b"/>
    </linearGradient>
  </defs>
  <circle class="cls-1" cx="750" cy="750" r="691.87"/>
  <path class="cls-2" d="M750,29.5C352.08,29.5,29.5,352.08,29.5,750s322.58,720.5,720.5,720.5,720.5-322.58,720.5-720.5S1147.91,29.5,750,29.5Zm14.92,1121.44c-70.83,0-140.78-17.88-203.39-51.84l-232.93,62.4,62.12-231.74c-35.17-63.45-53.68-134.55-53.68-206.71,0-235.93,191.95-427.88,427.89-427.88s427.9,191.95,427.9,427.88-191.96,427.89-427.9,427.89Zm0-774.89c-191.33,0-347,155.66-347,347,0,63.19,17.55,125.39,50.74,179.92l9,14.77-34.67,129.39,130.13-34.87,14.66,8.75c53.86,32.09,115.11,49.06,177.14,49.06,191.34,0,347.02-155.66,347.02-347.02s-155.68-347-347.02-347Zm203.83,478.06c-12.91,31.35-44.98,51.48-77.52,57.66-31.08,5.9-56.71-3.99-85.48-13.5-25.66-8.48-50.44-20.83-73.44-34.92-46.03-28.2-85.79-65.93-117.75-109.34-9.77-13.27-18.82-27.07-27.16-41.29-11.05-18.86-20.87-38.69-26.01-59.93-2.13-8.83-3.26-17.96-3.35-27.11-.38-32.2,11.91-64.69,37.37-85.43,14.75-12.01,36.56-17.25,53.13-7.9,18,10.17,27.34,35.82,35.69,53.8,6.53,14.07,13.95,32.55,11.25,48.35-2.69,15.81-15.2,29.12-25.16,40.85-6.73,7.92-7.73,14.65-2.15,23.19,32.97,54.96,78.75,94.85,138.51,118.65,8.12,3.27,14.44,2.25,19.74-4.28,10.31-12.72,20.47-37.64,36.39-44.15,20.75-8.49,43.67,3.27,61.28,13.81,16.4,9.8,43.83,21.85,48.25,42.12,2.14,9.8,.23,20.14-3.6,29.42Z"/>
</svg>