<?xml version="1.0" encoding="UTF-8"?>
<svg xmlns="http://www.w3.org/2000/svg" xmlns:xlink="http://www.w3.org/1999/xlink" viewBox="0 0 3000 3000">
  <defs>
    <style>
      .cls-1 {
        fill: url(#linear-gradient-2);
      }

      .cls-2 {
        fill: url(#linear-gradient-4);
        mix-blend-mode: multiply;
      }

      .cls-3 {
        isolation: isolate;
      }

      .cls-4 {
        fill: url(#linear-gradient-3);
      }

      .cls-5 {
        fill: url(#linear-gradient);
      }
    </style>
    <linearGradient id="linear-gradient" x1="205" y1="1824.69" x2="2795" y2="1824.69" gradientUnits="userSpaceOnUse">
      <stop offset="0" stop-color="#fbcd3e"/>
      <stop offset="1" stop-color="#f96d34"/>
    </linearGradient>
    <linearGradient id="linear-gradient-2" x1="829.67" y1="2061.08" x2="1986.93" y2="2355.95" gradientUnits="userSpaceOnUse">
      <stop offset="0" stop-color="#fbcd3e"/>
      <stop offset="1" stop-color="#f96d34" stop-opacity="0"/>
    </linearGradient>
    <linearGradient id="linear-gradient-3" x1="-102.65" y1="1507.28" x2="2860.05" y2="889.26" xlink:href="#linear-gradient"/>
    <linearGradient id="linear-gradient-4" x1="1047.15" y1="1046.19" x2="1459.78" y2="2254.34" gradientUnits="userSpaceOnUse">
      <stop offset="0" stop-color="#fbcd3e" stop-opacity="0"/>
      <stop offset="1" stop-color="#f96d34"/>
    </linearGradient>
  </defs>
  <g class="cls-3">
    <g id="Layer_1" data-name="Layer 1">
      <g>
        <path class="cls-5" d="M2795,1263.92s-14.86,50.93-166,102.57c-120.96,41.37-238.26,83.19-280.35,98.25-.06-.26-.06-.52-.13-.72l-1128.53,397.98s-603.71,183.93-618.76,445.04H244.21c-21.6,0-39.21,17.61-39.21,39.21s17.61,39.21,39.21,39.21H2471.12c21.6,0,39.21-17.67,39.21-39.21s-17.61-39.21-39.21-39.21h-323.94c145.84-187.66,229.49-425.99,219.74-684.22-1.31-33.51-4.39-66.57-8.77-99.23,90.26-26.9,422-133.92,436.86-259.67Z"/>
        <path class="cls-1" d="M1169.95,1878.67s-452.28,224.47-314.02,506.76H2024.35c64.92-72.26,132.82-167,190.58-289.06,0,0-1909.89,460.47-1044.97-217.7Z"/>
        <path class="cls-4" d="M1190.29,1819.94h0l106.32-37.09-200.28-133.52s81.6-59.34,210.17,2.47c128.58,61.81,254.68,19.78,254.68,19.78l375.84-217.59-187.92,56.87-425.29-271.99c103.85-61.82,249.73-76.65,398.09-17.31,148.36,59.34,393.15,131.05,553.86,84.07,8.2-2.4,16.87-4.89,25.78-7.42-.05-.13-.1-.25-.15-.38,66.51-18.25,232.65-57.23,232.65-57.23-98.08,17.14-213.36,29.41-242.5,32.39-156.43-386.85-537.33-659.69-976.11-658.45-326.34,.92-617.59,150.84-809.39,385.3-127.74,156.15-199.49,352.17-190.76,553.73,11.35,262.03,158.3,564.44,875.01,266.36Z"/>
        <path class="cls-2" d="M922.87,1910.83s-798.18-57.51-174.51-954.22c0,0,413.86-393.74,974.3-54.61,0,0-1684.99,781.77-799.79,1008.83Z"/>
      </g>
    </g>
  </g>
</svg>