<?xml version="1.0" encoding="UTF-8"?>
<svg xmlns="http://www.w3.org/2000/svg" xmlns:xlink="http://www.w3.org/1999/xlink" viewBox="0 0 3000 330">
  <defs>
    <style>
      .cls-1 {
        fill: url(#linear-gradient-2);
      }

      .cls-2 {
        fill: url(#linear-gradient-4);
        mix-blend-mode: multiply;
      }

      .cls-3 {
        isolation: isolate;
      }

      .cls-4 {
        fill: #383838;
      }

      .cls-5 {
        fill: url(#linear-gradient-3);
      }

      .cls-6 {
        fill: url(#linear-gradient);
      }
    </style>
    <linearGradient id="linear-gradient" x1="26.97" y1="204.4" x2="362.01" y2="204.4" gradientUnits="userSpaceOnUse">
      <stop offset="0" stop-color="#fbcd3e"/>
      <stop offset="1" stop-color="#f96d34"/>
    </linearGradient>
    <linearGradient id="linear-gradient-2" x1="107.78" y1="234.98" x2="257.48" y2="273.13" gradientUnits="userSpaceOnUse">
      <stop offset="0" stop-color="#fbcd3e"/>
      <stop offset="1" stop-color="#f96d34" stop-opacity="0"/>
    </linearGradient>
    <linearGradient id="linear-gradient-3" x1="-12.83" y1="163.34" x2="370.43" y2="83.39" xlink:href="#linear-gradient"/>
    <linearGradient id="linear-gradient-4" x1="135.91" y1="103.7" x2="189.29" y2="259.98" gradientUnits="userSpaceOnUse">
      <stop offset="0" stop-color="#fbcd3e" stop-opacity="0"/>
      <stop offset="1" stop-color="#f96d34"/>
    </linearGradient>
  </defs>
  <g class="cls-3">
    <g id="Layer_1" data-name="Layer 1">
      <g>
        <g>
          <path class="cls-6" d="M362.01,131.86s-1.92,6.59-21.47,13.27c-15.65,5.35-30.82,10.76-36.27,12.71,0-.03,0-.07-.02-.09l-145.99,51.48s-78.1,23.79-80.04,57.57H32.04c-2.79,0-5.07,2.28-5.07,5.07s2.28,5.07,5.07,5.07H320.12c2.79,0,5.07-2.29,5.07-5.07s-2.28-5.07-5.07-5.07h-41.91c18.87-24.28,29.69-55.11,28.43-88.51-.17-4.34-.57-8.61-1.13-12.84,11.68-3.48,54.59-17.32,56.51-33.59Z"/>
          <path class="cls-1" d="M151.8,211.39s-58.51,29.04-40.62,65.56h151.15c8.4-9.35,17.18-21.6,24.65-37.39,0,0-247.06,59.57-135.18-28.16Z"/>
          <path class="cls-5" d="M154.43,203.79h0l13.75-4.8-25.91-17.27s10.56-7.68,27.19,.32c16.63,8,32.95,2.56,32.95,2.56l48.62-28.15-24.31,7.36-55.02-35.18c13.43-8,32.31-9.92,51.5-2.24,19.19,7.68,50.86,16.95,71.65,10.88,1.06-.31,2.18-.63,3.33-.96,0-.02-.01-.03-.02-.05,8.6-2.36,30.1-7.4,30.1-7.4-12.69,2.22-27.6,3.8-31.37,4.19-20.24-50.04-69.51-85.34-126.27-85.18-42.21,.12-79.89,19.51-104.7,49.84-16.52,20.2-25.81,45.56-24.68,71.63,1.47,33.9,20.48,73.02,113.19,34.46Z"/>
          <path class="cls-2" d="M119.83,215.55s-103.25-7.44-22.58-123.44c0,0,53.54-50.93,126.04-7.06,0,0-217.97,101.13-103.46,130.5Z"/>
        </g>
        <g>
          <g>
            <path class="cls-4" d="M2911.34,65.79V209.79c-18.04-3.32-36.88-6.57-56.5-9.74V65.79c0-4.38,2.08-6.56,6.26-6.56h43.52c4.49,0,6.72,2.18,6.72,6.56Z"/>
            <path class="cls-4" d="M1229.13,133.28v3.12c-19,.77-37.84,1.59-56.5,2.45v-4.05c-.1-7.02-2.24-12.37-6.42-16.03-4.18-3.67-9.21-5.61-15.11-5.81h-16.04v27.71c-19.03,.95-37.87,1.96-56.5,3.01V65.79c0-4.38,2.13-6.56,6.42-6.56h66.58c10.78,.1,20.89,1.83,30.31,5.19,9.42,3.36,17.64,8.23,24.66,14.59,7.03,6.36,12.55,14.1,16.57,23.21,4.02,9.11,6.03,19.47,6.03,31.07Z"/>
            <path class="cls-4" d="M1347.48,132.28v-2.97c0-2.75-.42-5.41-1.23-8.01-.82-2.6-2.04-4.89-3.67-6.87-1.63-1.98-3.67-3.59-6.11-4.81-2.44-1.23-5.24-1.83-8.4-1.83s-6.09,.61-8.48,1.83c-2.39,1.21-4.42,2.82-6.11,4.81-1.67,1.98-2.93,4.27-3.74,6.87-.81,2.6-1.21,5.26-1.21,8.01v4.19c-18.99,.62-37.83,1.29-56.51,2v-1.61c0-10.38,1.53-20.39,4.58-30.01,3.06-9.61,7.72-18.09,13.98-25.43,6.26-7.32,14.14-13.2,23.67-17.64,9.52-4.42,20.74-6.64,33.66-6.64s23.85,2.2,33.38,6.56c9.52,4.38,17.42,10.23,23.74,17.56,6.31,7.33,11.04,15.78,14.21,25.35,2.86,8.66,4.42,17.7,4.68,27.12-18.95,.46-37.77,.96-56.45,1.5Z"/>
            <path class="cls-4" d="M1484.92,65.79v63.34c-18.95,.32-37.79,.68-56.51,1.09V65.79c0-1.73,.46-3.26,1.37-4.58,.92-1.32,2.09-1.98,3.52-1.98h45.81c2.34,0,3.89,.64,4.66,1.91,.77,1.28,1.15,2.82,1.15,4.66Z"/>
            <path class="cls-4" d="M1580.51,65.79v62.13c-18.98,.16-37.87,.37-56.65,.62v-62.75c0-1.73,.63-3.26,1.91-4.58,1.27-1.32,2.77-1.98,4.51-1.98h43.98c2.04,0,3.58,.66,4.66,1.98,1.07,1.32,1.6,2.86,1.6,4.58Z"/>
            <path class="cls-4" d="M1754.59,123.05v4.65c-18.74-.12-37.57-.19-56.5-.21v-2.45c0-3.36-1.17-6.21-3.52-8.55-2.34-2.34-5.3-3.52-8.86-3.52h-18.17v14.51c-18.92,.02-37.76,.09-56.5,.2v-61.9c0-4.38,2.13-6.56,6.42-6.56h71.77c8.95,0,17.4,1.65,25.34,4.97,7.95,3.3,14.9,7.83,20.86,13.59,5.95,5.75,10.63,12.5,14.04,20.24,3.41,7.74,5.11,16.08,5.11,25.04Z"/>
            <path class="cls-4" d="M1929.37,130.08c-18.7-.39-37.52-.75-56.45-1.06-.02-2.65-.43-5.22-1.2-7.73-.82-2.6-2.04-4.89-3.67-6.87-1.63-1.98-3.67-3.59-6.11-4.81-2.45-1.23-5.25-1.83-8.41-1.83s-6.07,.61-8.47,1.83c-2.39,1.21-4.42,2.82-6.11,4.81-1.68,1.98-2.93,4.27-3.74,6.87-.74,2.33-1.14,4.71-1.2,7.16-18.69-.25-37.47-.45-56.35-.6,.48-8.24,1.95-16.23,4.41-23.98,3.06-9.61,7.72-18.09,13.97-25.43,6.27-7.32,14.15-13.2,23.67-17.64,9.53-4.42,20.75-6.64,33.67-6.64s23.85,2.2,33.37,6.56c9.52,4.38,17.43,10.23,23.75,17.56,6.31,7.33,11.04,15.78,14.19,25.35,2.78,8.45,4.34,17.25,4.67,26.42Z"/>
            <path class="cls-4" d="M2484.99,133.74v23.6c-18.55-1.51-37.39-2.97-56.5-4.39v-23.65c0-2.75-.41-5.41-1.23-8.01-.81-2.6-2.04-4.89-3.67-6.87-1.63-1.98-3.67-3.59-6.11-4.81-2.44-1.23-5.24-1.83-8.4-1.83s-6.08,.61-8.47,1.83c-2.4,1.21-4.43,2.82-6.12,4.81-1.67,1.98-2.92,4.27-3.74,6.87-.81,2.6-1.21,5.26-1.21,8.01v20.88c-18.6-1.28-37.44-2.51-56.5-3.7v-12.6c0-10.38,1.52-20.39,4.58-30.01,3.05-9.61,7.7-18.09,13.97-25.43,6.25-7.32,14.15-13.2,23.67-17.64,9.52-4.42,20.74-6.64,33.67-6.64s23.84,2.2,33.37,6.56c9.52,4.38,17.43,10.23,23.74,17.56,6.31,7.33,11.05,15.78,14.21,25.35,3.15,9.57,4.73,19.6,4.73,30.08Z"/>
            <path class="cls-4" d="M2170.26,116.03v17.1c0,1.95-.27,3.54-.78,4.73-18.17-.81-36.49-1.57-54.97-2.27v-5.67c0-4.38-.55-7.97-1.67-10.77-1.13-2.79-2.58-5.03-4.36-6.71s-3.79-2.85-6.03-3.52c-2.24-.66-4.48-.99-6.71-.99-2.75,0-5.28,.59-7.57,1.76-2.29,1.17-4.25,2.7-5.87,4.58-1.63,1.89-2.88,4.07-3.74,6.56-.87,2.49-1.3,5.06-1.3,7.72v5.67c-18.68-.65-37.52-1.26-56.5-1.82v-1.56c0-10.79,1.67-20.88,5.04-30.24,3.36-9.37,8.24-17.48,14.65-24.35,6.42-6.87,14.33-12.3,23.75-16.26,9.41-3.97,20.17-5.96,32.29-5.96s23.59,2.04,32.91,6.11c9.32,4.07,16.98,9.22,22.99,15.42,6.01,6.21,10.49,12.94,13.44,20.16,2.95,7.23,4.43,13.99,4.43,20.31Z"/>
            <path class="cls-4" d="M2255.16,65.79v76.24c-18.65-.99-37.48-1.94-56.5-2.83V65.79c0-4.38,2.09-6.56,6.27-6.56h43.52c4.48,0,6.71,2.18,6.71,6.56Z"/>
            <path class="cls-4" d="M2650.29,95.87c-3.1-7.33-7.43-13.72-12.98-19.16-5.55-5.45-12.19-9.73-19.93-12.83-7.74-3.1-16.24-4.66-25.5-4.66h-73.15c-4.18,0-6.27,2.18-6.27,6.56v93.86c46.82,4,91.76,8.33,134.64,12.97-1.39-1.52-2.81-2.9-4.31-4.13-3.01-2.49-5.83-4.25-8.47-5.26,2.33-.92,4.73-2.49,7.17-4.74,2.44-2.24,4.66-4.96,6.64-8.16,1.99-3.21,3.61-6.72,4.89-10.54,1.27-3.82,1.91-7.81,1.91-11.99v-8.4c0-8.34-1.56-16.19-4.66-23.52Zm-50.78,35.73c0,7.44-4.12,11.15-12.36,11.15h-19.25v-30.54h18.17c4.69,0,8.1,1,10.23,2.98,2.14,1.98,3.21,5.01,3.21,9.08v7.33Z"/>
            <path class="cls-4" d="M2816.1,194.05c-17.34-2.58-35.2-5.09-53.57-7.54l-6.04-33.07-3.36-25.65-3.21,25.65-5.7,30.66c-16.22-2.1-32.82-4.15-49.79-6.13l30.45-112.18c1.23-4.38,3.87-6.56,7.94-6.56h40.47c4.17,0,6.86,2.18,8.09,6.56l34.72,128.26Z"/>
            <path class="cls-4" d="M702.46,65.79v108.44c-19.28,2.14-38.12,4.34-56.5,6.61V65.79c0-4.38,2.13-6.56,6.42-6.56h43.67c4.27,0,6.42,2.18,6.42,6.56Z"/>
            <path class="cls-4" d="M1027.03,146.75c-15.92,.99-31.68,2.02-47.27,3.08l-2.9-22.05-2.8,22.44c-16.63,1.15-33.08,2.33-49.33,3.56l23.88-88c1.23-4.38,3.87-6.56,7.94-6.56h40.47c4.17,0,6.87,2.18,8.09,6.56l21.92,80.97Z"/>
            <path class="cls-4" d="M612.36,65.79v119.31c-17.14,2.24-33.83,4.53-50.1,6.88l.47-13.34,3.06-36.5-9.47,36.19-5.03,15.26c-24.78,3.65-48.49,7.43-71.06,11.33l-8.81-26.43-9.62-36.5,3.21,36.65,.96,28.78c-17.66,3.14-34.58,6.37-50.75,9.67V65.79c.2-2.14,.69-3.76,1.45-4.89,.77-1.12,2.07-1.67,3.9-1.67h51c2.14,0,3.43,.55,3.89,1.67,.46,1.13,1.04,2.75,1.76,4.89l33.6,97.43,2.9,18.17,3.21-18.17,33.44-97.43c.71-2.14,1.3-3.76,1.76-4.89,.46-1.12,1.76-1.67,3.9-1.67h51c1.83,0,3.13,.55,3.89,1.67,.77,1.13,1.25,2.75,1.45,4.89Z"/>
            <path class="cls-4" d="M874.47,98.01c-3.41-7.74-8.09-14.48-14.04-20.24-5.96-5.75-12.91-10.28-20.84-13.59-7.94-3.31-16.39-4.97-25.35-4.97h-71.77c-4.27,0-6.42,2.18-6.42,6.56v104.82c45.06-4.71,92.3-9.09,141.51-13.12,.04-.15,.09-.31,.13-.46,1.28-4.83,1.91-9.9,1.91-15.2v-18.78c0-8.96-1.71-17.31-5.12-25.04Zm-51.39,45.35c0,1.63-.3,3.23-.92,4.81-.61,1.58-1.45,3-2.52,4.27-1.07,1.28-2.37,2.29-3.9,3.06-1.52,.77-3.21,1.14-5.03,1.14h-18.18v-43.67h18.18c3.56,0,6.51,1.17,8.86,3.52s3.51,5.19,3.51,8.55v18.33Z"/>
          </g>
          <path d="M2114.51,135.56v.29c0,1.73,.46,2.82,1.37,3.28,.92,.46,2.24,.68,3.98,.68h46.11c1.74,0,2.88-.61,3.44-1.83,.02-.05,.04-.1,.06-.15-18.17-.81-36.49-1.57-54.97-2.27Z"/>
          <path d="M2169.48,137.83c-.02,.05-.04,.1-.06,.15-.57,1.23-1.71,1.83-3.44,1.83h-46.11c-1.74,0-3.06-.22-3.98-.68-.92-.46-1.37-1.56-1.37-3.28v-.29c18.48,.7,36.8,1.46,54.97,2.27Z"/>
          <g>
            <path d="M480.23,204.88c22.57-3.9,46.28-7.67,71.06-11.33l-15.12,45.82c-.82,2.65-1.53,4.43-2.14,5.35-.61,.92-1.98,1.37-4.12,1.37h-31.92c-2.13,0-3.54-.46-4.2-1.37-.66-.92-1.35-2.7-2.06-5.35l-11.5-34.5Z"/>
            <g>
              <path d="M465.96,207.39l2.09,63.15c.11,4.27-1.73,6.4-5.49,6.4h-42c-3.77,0-5.55-2.13-5.35-6.4v-53.48c16.17-3.29,33.09-6.52,50.75-9.67Z"/>
              <path d="M1580.51,127.88v74.24c0,12.52-1.71,23.72-5.11,33.59-3.41,9.88-8.38,18.25-14.89,25.13-6.52,6.86-14.48,12.12-23.9,15.73-9.42,3.61-20.13,5.41-32.14,5.41s-21.79-1.8-31.16-5.41c-9.37-3.61-17.35-8.78-23.97-15.51-6.62-6.71-11.76-14.87-15.43-24.43-3.67-9.57-5.5-20.31-5.5-32.21v-74.23c18.72-.4,37.56-.77,56.51-1.09v78.99c0,5.8,1.69,10.64,5.11,14.5,3.41,3.87,8.22,5.81,14.43,5.81,3.25,0,6.11-.57,8.55-1.68,2.45-1.12,4.45-2.62,6.03-4.51,1.58-1.89,2.77-4.05,3.59-6.49,.81-2.44,1.23-4.99,1.23-7.63v-79.58c18.78-.25,37.67-.46,56.65-.62Z"/>
              <path d="M562.26,191.95c16.26-2.36,32.96-4.65,50.1-6.88v85.48c.11,4.27-1.67,6.4-5.34,6.4h-42.15c-3.77,0-5.55-2.13-5.35-6.4l2.74-78.59Z"/>
              <path d="M879.59,270.54c.51,1.42,.51,2.85,0,4.27-.51,1.43-1.63,2.13-3.36,2.13h-49.48c-2.04,0-3.46-.41-4.27-1.21-.82-.82-1.52-2.44-2.14-4.89l-13.74-62h-14.06v61.7c0,4.27-2.24,6.4-6.71,6.4h-43.37c-4.27,0-6.42-2.13-6.42-6.4v-99.97c45.06-4.71,92.3-9.09,141.51-13.12-1.25,4.67-2.95,9.08-5.06,13.21-2.2,4.27-4.81,8.22-7.86,11.83-3.06,3.62-6.31,6.91-9.77,9.86l4.58,7.17,20.15,71.01Z"/>
              <path d="M1060.55,270.54c1.32,4.27,.26,6.4-3.21,6.4h-47.34c-2.14,0-3.92-.5-5.35-1.52-1.43-1.01-2.39-2.64-2.9-4.88l-3.21-17.56h-43.37l-3.21,17.56c-.5,2.24-1.5,3.87-2.97,4.88-1.48,1.02-3.23,1.52-5.26,1.52h-47.35c-3.46,0-4.58-2.13-3.36-6.4l31.7-116.78c16.25-1.23,32.69-2.41,49.33-3.56l-.4,3.21-9.15,49.33h24.73l-9-49.33-.47-3.6c15.59-1.06,31.35-2.09,47.27-3.08l33.51,123.82Z"/>
              <path d="M1172.63,138.82c18.66-.86,37.5-1.68,56.5-2.45v66.51c0,11.6-2.01,21.99-6.03,31.16-4.02,9.16-9.52,16.9-16.49,23.21-6.98,6.31-15.12,11.15-24.44,14.5-9.31,3.36-19.32,5.09-30.01,5.19h-67.19c-4.28,0-6.42-2.13-6.42-6.4v-126.89c18.63-1.04,37.47-2.06,56.5-3.01v82.55h15.73c3.06,0,5.93-.55,8.63-1.67,2.7-1.12,5.01-2.65,6.95-4.58,1.93-1.94,3.45-4.23,4.58-6.87,1.12-2.64,1.67-5.5,1.67-8.56v-62.68Z"/>
              <path d="M1403.93,130.75c.04,.98,.05,1.97,.05,2.96v68.87c0,10.49-1.56,20.51-4.66,30.08-3.11,9.57-7.82,18.02-14.13,25.35-6.31,7.32-14.23,13.18-23.74,17.55-9.53,4.38-20.69,6.57-33.53,6.57s-23.54-2.2-33.06-6.57c-9.52-4.37-17.43-10.25-23.74-17.64-6.32-7.37-11.07-15.86-14.28-25.43-3.21-9.56-4.82-19.54-4.82-29.92v-67.11c18.68-.71,37.52-1.39,56.51-2v73.39c0,6.11,1.6,11.22,4.81,15.35,3.21,4.12,8.12,6.19,14.74,6.19,3.25,0,6.11-.57,8.55-1.68,2.45-1.12,4.45-2.62,6.03-4.51,1.58-1.89,2.77-4.12,3.59-6.71,.81-2.6,1.23-5.42,1.23-8.48v-74.76c18.68-.54,37.5-1.04,56.45-1.5Z"/>
              <path d="M645.96,180.8c18.38-2.27,37.22-4.46,56.5-6.61v96.35c0,4.27-2.14,6.4-6.42,6.4h-43.67c-4.28,0-6.42-2.13-6.42-6.4v-89.74Z"/>
              <path d="M2657.62,190.14c-1.68-4.64-3.82-8.78-6.42-12.45-1.31-1.85-2.68-3.55-4.09-5.1-42.88-4.64-87.82-8.97-134.64-12.97v110.92c0,4.27,2.09,6.4,6.27,6.4h79.25c7.84,0,15.51-1.49,22.99-4.5,7.48-3,14.12-7.11,19.93-12.3,5.8-5.19,10.45-11.3,13.97-18.32,3.52-7.03,5.26-14.56,5.26-22.6v-14.21c0-5.3-.83-10.25-2.51-14.89Zm-53.99,21.61c0,3.56-1.25,6.49-3.74,8.78-2.49,2.28-5.37,3.43-8.62,3.43h-23.37v-35.58h23.37c1.93,0,3.66,.36,5.19,1.07,1.52,.71,2.82,1.66,3.89,2.82,1.07,1.17,1.89,2.5,2.44,3.97,.56,1.48,.84,2.97,.84,4.51v11Z"/>
              <path d="M2836.82,270.54c1.32,4.27,.26,6.4-3.21,6.4h-47.34c-2.14,0-3.92-.5-5.35-1.52-1.43-1.01-2.39-2.64-2.9-4.88l-3.21-17.56h-43.37l-3.21,17.56c-.51,2.24-1.5,3.87-2.97,4.88-1.48,1.02-3.24,1.52-5.28,1.52h-47.34c-3.46,0-4.58-2.13-3.36-6.4l25.14-92.6c16.97,1.98,33.57,4.03,49.79,6.13l-3.46,18.67h24.74l-2.97-16.26c18.37,2.45,36.23,4.97,53.57,7.54l20.72,76.52Z"/>
              <path d="M2973.03,230.21v40.32c0,4.27-1.73,6.4-5.19,6.4h-106.75c-4.18,0-6.26-2.13-6.26-6.4v-70.52c19.62,3.17,38.46,6.42,56.5,9.74v13.44h56.5c1.83,0,3.15,.67,3.96,1.99,.82,1.32,1.23,2.99,1.23,5.03Z"/>
              <path d="M2171.78,167v38.63c0,13.34-1.98,24.84-5.96,34.52-3.96,9.68-9.42,17.62-16.34,23.82-6.93,6.21-15.05,10.79-24.36,13.75-9.31,2.95-19.36,4.43-30.16,4.43s-21.36-1.99-30.47-5.96c-9.11-3.98-16.92-9.42-23.43-16.35-6.52-6.92-11.53-15.13-15.05-24.66-3.52-9.52-5.26-19.82-5.26-30.92v-71.89c18.98,.57,37.82,1.17,56.5,1.82v72.52c0,2.95,.38,5.72,1.14,8.32,.77,2.59,1.94,4.88,3.52,6.86,1.58,1.99,3.54,3.57,5.88,4.74,2.33,1.17,5.14,1.76,8.4,1.76,1.83,0,3.82-.23,5.96-.69,2.13-.46,4.17-1.37,6.11-2.75,1.93-1.37,3.59-3.3,4.96-5.8,1.37-2.49,2.16-5.73,2.38-9.7h-15.58c-3.46,0-5.19-2.14-5.19-6.42v-36.04c0-4.27,1.73-6.42,5.19-6.42h65.36c4.27,0,6.42,2.14,6.42,6.42Z"/>
              <path d="M2484.99,157.31v45.27c0,10.49-1.56,20.51-4.66,30.08-3.11,9.57-7.81,18.02-14.13,25.35-6.31,7.32-14.23,13.18-23.74,17.55-9.52,4.38-20.69,6.57-33.51,6.57s-23.55-2.2-33.07-6.57c-9.52-4.37-17.43-10.25-23.74-17.64-6.32-7.37-11.07-15.86-14.28-25.43-3.21-9.56-4.81-19.54-4.81-29.92v-56.13c19.06,1.18,37.9,2.42,56.5,3.7v56.7c0,6.11,1.6,11.22,4.81,15.35,3.21,4.12,8.12,6.19,14.74,6.19,3.26,0,6.11-.57,8.55-1.68,2.45-1.12,4.45-2.62,6.04-4.51,1.57-1.89,2.77-4.12,3.58-6.71,.82-2.6,1.23-5.42,1.23-8.48v-54.08c19.11,1.42,37.95,2.88,56.5,4.39Z"/>
              <path d="M1929.37,130.04c.04,1.21,.06,2.44,.06,3.67v68.87c0,10.49-1.55,20.51-4.66,30.08-3.1,9.57-7.81,18.02-14.12,25.35-6.32,7.32-14.23,13.18-23.74,17.55-9.53,4.38-20.7,6.57-33.53,6.57s-23.54-2.2-33.06-6.57c-9.53-4.37-17.43-10.25-23.75-17.64-6.31-7.37-11.07-15.86-14.27-25.43-3.21-9.56-4.82-19.54-4.82-29.92v-68.72c0-2.02,.05-4.04,.17-6.03,18.88,.15,37.66,.35,56.35,.6-.02,.28-.02,.56-.02,.85v77.58c0,6.11,1.61,11.22,4.82,15.35,3.21,4.12,8.11,6.19,14.73,6.19,3.26,0,6.12-.57,8.56-1.68,2.44-1.12,4.45-2.62,6.03-4.51,1.58-1.89,2.77-4.12,3.59-6.71,.81-2.6,1.21-5.42,1.21-8.48v-77.73c0-.1,0-.19-.01-.29,18.93,.31,37.75,.66,56.45,1.06Z"/>
              <path d="M2315.63,225.18c.81,1.32,1.23,2.99,1.23,5.03v40.32c0,4.27-1.74,6.4-5.2,6.4h-106.73c-4.18,0-6.27-2.13-6.27-6.4V139.15c19.02,.9,37.85,1.84,56.5,2.83v81.2h56.5c1.83,0,3.15,.67,3.98,1.99Z"/>
              <path d="M1754.59,270.54c.51,1.42,.51,2.85,0,4.27-.51,1.43-1.63,2.13-3.36,2.13h-49.48c-2.04,0-3.46-.41-4.27-1.21-.82-.82-1.53-2.44-2.14-4.89l-13.75-62h-14.04v61.7c0,4.27-2.24,6.4-6.72,6.4h-43.36c-4.28,0-6.42-2.13-6.42-6.4V127.66c18.74-.12,37.59-.18,56.5-.2v29.16h18.17c1.83,0,3.52-.37,5.04-1.14,1.52-.77,2.82-1.78,3.89-3.06,1.08-1.27,1.92-2.7,2.53-4.27,.61-1.58,.92-3.18,.92-4.81v-15.88c18.93,.02,37.76,.1,56.5,.21v14.13c0,5.3-.64,10.37-1.91,15.2-1.28,4.84-3.01,9.4-5.19,13.67-2.2,4.27-4.82,8.22-7.86,11.83-3.06,3.62-6.32,6.91-9.78,9.86l4.58,7.17,20.16,71.01Z"/>
              <path d="M2657.62,190.14c-1.68-4.64-3.82-8.78-6.42-12.45-1.31-1.85-2.68-3.55-4.09-5.1-42.88-4.64-87.82-8.97-134.64-12.97v110.92c0,4.27,2.09,6.4,6.27,6.4h79.25c7.84,0,15.51-1.49,22.99-4.5,7.48-3,14.12-7.11,19.93-12.3,5.8-5.19,10.45-11.3,13.97-18.32,3.52-7.03,5.26-14.56,5.26-22.6v-14.21c0-5.3-.83-10.25-2.51-14.89Zm-53.99,21.61c0,3.56-1.25,6.49-3.74,8.78-2.49,2.28-5.37,3.43-8.62,3.43h-23.37v-35.58h23.37c1.93,0,3.66,.36,5.19,1.07,1.52,.71,2.82,1.66,3.89,2.82,1.07,1.17,1.89,2.5,2.44,3.97,.56,1.48,.84,2.97,.84,4.51v11Z"/>
            </g>
          </g>
        </g>
      </g>
    </g>
  </g>
</svg>